<?xml version="1.0" encoding="UTF-8"?>
<svg version="1.1" xmlns="http://www.w3.org/2000/svg" width="129" height="85">
<path d="M0 0 C0.66 0.66 1.32 1.32 2 2 C4.60280568 1.67958603 4.60280568 1.67958603 7 1 C8.96189209 4.6678852 10.39301257 7.87248551 11 12 C11.99 12 12.98 12 14 12 C15.39935013 14.79870027 15.25265405 16.90498792 15 20 C13.5 21.875 13.5 21.875 12 23 C11.67 22.67 11.34 22.34 11 22 C10.80664062 22.69867188 10.61328125 23.39734375 10.4140625 24.1171875 C10.02347656 25.48230469 10.02347656 25.48230469 9.625 26.875 C9.24214844 28.23238281 9.24214844 28.23238281 8.8515625 29.6171875 C8 32 8 32 6 34 C5.1028125 33.7215625 5.1028125 33.7215625 4.1875 33.4375 C3.465625 33.293125 2.74375 33.14875 2 33 C1.2575 33.556875 0.515 34.11375 -0.25 34.6875 C-3 36 -3 36 -4.921875 35.48828125 C-11.57609591 32.32377394 -16.34142491 27.99625022 -19 21 C-19.76762003 15.0783598 -18.3009215 10.83458042 -15 6 C-11.07720612 1.74403732 -5.89822245 -2.44064377 0 0 Z M-8 3 C-12.08341046 9.635542 -13.07851091 15.2430177 -12 23 C-10.93730867 25.98652908 -9.67374196 28.28016931 -8 31 C-6.75248427 29.0065104 -6.75248427 29.0065104 -7.4375 26.625 C-8.65701326 18.76591452 -8.2053261 10.83461962 -7 3 C-7.33 3 -7.66 3 -8 3 Z M-1 5 C-4.11342778 11.96563504 -4.77460102 18.51971976 -3 26 C-2.01 26.99 -1.02 27.98 0 29 C0 21.08 0 13.16 0 5 C-0.33 5 -0.66 5 -1 5 Z M5 10 C4.08542997 15.56157448 3.67913603 19.675665 6 25 C8.25680034 23.169918 8.25680034 23.169918 8.23046875 20.46875 C8.21628906 19.4890625 8.20210937 18.509375 8.1875 17.5 C8.18105469 16.5203125 8.17460938 15.540625 8.16796875 14.53125 C8.16440726 12.00630616 8.16440726 12.00630616 7 10 C6.34 10 5.68 10 5 10 Z " fill="#AA99D6" transform="translate(66,18)"/>
<path d="M0 0 C2.64 0 5.28 0 8 0 C8.33 0.66 8.66 1.32 9 2 C9.33 1.34 9.66 0.68 10 0 C10.99 0 11.98 0 13 0 C12.34 3.3 11.68 6.6 11 10 C9.68 10 8.36 10 7 10 C6.67 9.34 6.34 8.68 6 8 C5.67 8.99 5.34 9.98 5 11 C4.01 11 3.02 11 2 11 C0.57741188 7.17679443 -0.24042276 4.08718695 0 0 Z " fill="#A99AD1" transform="translate(92,57)"/>
<path d="M0 0 C3.375 -0.125 3.375 -0.125 7 0 C9 2 9 2 9.3125 4.9375 C9 8 9 8 7.875 9.875 C5.21965017 11.4682099 3.03210482 11.20214032 0 11 C0 7.37 0 3.74 0 0 Z M3 2 C3 3.98 3 5.96 3 8 C3.99 7.67 4.98 7.34 6 7 C5.67 5.35 5.34 3.7 5 2 C4.34 2 3.68 2 3 2 Z " fill="#A999D3" transform="translate(53,57)"/>
<path d="M0 0 C2.97 0 5.94 0 9 0 C9 0.66 9 1.32 9 2 C7.02 2 5.04 2 3 2 C3 2.66 3 3.32 3 4 C4.98 4 6.96 4 9 4 C9 4.66 9 5.32 9 6 C7.02 6 5.04 6 3 6 C3 6.66 3 7.32 3 8 C4.98 8 6.96 8 9 8 C9 8.99 9 9.98 9 11 C2.84765625 11.09765625 2.84765625 11.09765625 1 11 C0 10 0 10 -0.09765625 7.71484375 C-0.08605469 6.79832031 -0.07445313 5.88179687 -0.0625 4.9375 C-0.05347656 4.01839844 -0.04445313 3.09929688 -0.03515625 2.15234375 C-0.02355469 1.44207031 -0.01195313 0.73179688 0 0 Z " fill="#AFA2CF" transform="translate(82,57)"/>
<path d="M0 0 C1.32 0.33 2.64 0.66 4 1 C4 1.99 4 2.98 4 4 C4.66 4 5.32 4 6 4 C6.33 2.68 6.66 1.36 7 0 C7.99 0 8.98 0 10 0 C9.01 3.3 8.02 6.6 7 10 C5.68 10 4.36 10 3 10 C2.01 6.7 1.02 3.4 0 0 Z " fill="#AA9BD1" transform="translate(23,57)"/>
<path d="M0 0 C1.32 0.33 2.64 0.66 4 1 C4.33 1.99 4.66 2.98 5 4 C5.66 2.68 6.32 1.36 7 0 C7.99 0 8.98 0 10 0 C9.01 3.3 8.02 6.6 7 10 C5.68 10 4.36 10 3 10 C2.01 6.7 1.02 3.4 0 0 Z " fill="#AA9BD1" transform="translate(67,57)"/>
<path d="M0 0 C0.99 0 1.98 0 3 0 C3.66 0.99 4.32 1.98 5 3 C5.33 2.01 5.66 1.02 6 0 C6.99 0 7.98 0 9 0 C8.69078116 1.45903258 8.37751201 2.91720722 8.0625 4.375 C7.88847656 5.18710937 7.71445312 5.99921875 7.53515625 6.8359375 C7 9 7 9 6 11 C5.01 11 4.02 11 3 11 C2.49384702 9.73160474 1.99530901 8.46016898 1.5 7.1875 C1.2215625 6.47980469 0.943125 5.77210937 0.65625 5.04296875 C0 3 0 3 0 0 Z " fill="#AA9BD1" transform="translate(38,57)"/>
<path d="M0 0 C0.99 0 1.98 0 3 0 C3 3.63 3 7.26 3 11 C2.01 11 1.02 11 0 11 C0 7.37 0 3.74 0 0 Z " fill="#AD9CD4" transform="translate(78,57)"/>
<path d="M0 0 C0.99 0 1.98 0 3 0 C3 3.63 3 7.26 3 11 C2.01 11 1.02 11 0 11 C0 7.37 0 3.74 0 0 Z " fill="#AFA0D7" transform="translate(48,57)"/>
<path d="M0 0 C0.99 0 1.98 0 3 0 C3 3.3 3 6.6 3 10 C2.01 10.33 1.02 10.66 0 11 C0 7.37 0 3.74 0 0 Z " fill="#A493D0" transform="translate(34,57)"/>
</svg>
